<?xml version="1.0" encoding="UTF-8" standalone="no"?>
<!-- Created with Inkscape (http://www.inkscape.org/) -->

<svg
   width="1024"
   height="1024"
   viewBox="0 0 270.9333 270.9333"
   version="1.1"
   id="svg2463"
   inkscape:version="1.2.2 (b0a8486541, 2022-12-01)"
   sodipodi:docname="noctyris2.svg"
   inkscape:export-filename="noctyris2.png"
   inkscape:export-xdpi="96"
   inkscape:export-ydpi="96"
   xmlns:inkscape="http://www.inkscape.org/namespaces/inkscape"
   xmlns:sodipodi="http://sodipodi.sourceforge.net/DTD/sodipodi-0.dtd"
   xmlns:xlink="http://www.w3.org/1999/xlink"
   xmlns="http://www.w3.org/2000/svg"
   xmlns:svg="http://www.w3.org/2000/svg"
   xmlns:rdf="http://www.w3.org/1999/02/22-rdf-syntax-ns#"
   xmlns:cc="http://creativecommons.org/ns#"
   xmlns:dc="http://purl.org/dc/elements/1.1/">
  <title
     id="title2951">Noctyris logo</title>
  <sodipodi:namedview
     id="namedview2465"
     pagecolor="#505050"
     bordercolor="#eeeeee"
     borderopacity="1"
     inkscape:showpageshadow="0"
     inkscape:pageopacity="0"
     inkscape:pagecheckerboard="0"
     inkscape:deskcolor="#505050"
     inkscape:document-units="px"
     showgrid="false"
     inkscape:zoom="0.5"
     inkscape:cx="261"
     inkscape:cy="470"
     inkscape:window-width="1814"
     inkscape:window-height="907"
     inkscape:window-x="0"
     inkscape:window-y="0"
     inkscape:window-maximized="1"
     inkscape:current-layer="layer7">
    <inkscape:grid
       type="xygrid"
       id="grid6413"
       originx="0"
       originy="0" />
  </sodipodi:namedview>
  <defs
     id="defs2460">
    <linearGradient
       inkscape:collect="always"
       id="linearGradient4385">
      <stop
         style="stop-color:#4467b7;stop-opacity:1;"
         offset="0"
         id="stop4381" />
      <stop
         style="stop-color:#8e397b;stop-opacity:1;"
         offset="1"
         id="stop4383" />
    </linearGradient>
    <inkscape:path-effect
       effect="bspline"
       id="path-effect4014"
       is_visible="true"
       lpeversion="1"
       weight="33.3333"
       steps="2"
       helper_size="0"
       apply_no_weight="true"
       apply_with_weight="true"
       only_selected="false" />
    <linearGradient
       inkscape:collect="always"
       id="linearGradient3405">
      <stop
         style="stop-color:#0a0e21;stop-opacity:1;"
         offset="0"
         id="stop3401" />
      <stop
         style="stop-color:#000000;stop-opacity:1;"
         offset="1"
         id="stop3403" />
    </linearGradient>
    <radialGradient
       inkscape:collect="always"
       xlink:href="#linearGradient3405"
       id="radialGradient3407"
       cx="135.46666"
       cy="135.46666"
       fx="135.46666"
       fy="135.46666"
       r="135.46666"
       gradientUnits="userSpaceOnUse" />
    <filter
       inkscape:collect="always"
       style="color-interpolation-filters:sRGB"
       id="filter6998"
       x="-4.2735695"
       y="-4.2735842"
       width="9.5471389"
       height="9.5471684">
      <feGaussianBlur
         inkscape:collect="always"
         stdDeviation="2.5785294"
         id="feGaussianBlur7000" />
    </filter>
    <filter
       inkscape:collect="always"
       style="color-interpolation-filters:sRGB"
       id="filter7002"
       x="-3.0219207"
       y="-3.0219074"
       width="7.0438413"
       height="7.0438148">
      <feGaussianBlur
         inkscape:collect="always"
         stdDeviation="2.5785294"
         id="feGaussianBlur7004" />
    </filter>
    <filter
       inkscape:collect="always"
       style="color-interpolation-filters:sRGB"
       id="filter7006"
       x="-5.4016641"
       y="-5.4016782"
       width="11.803328"
       height="11.803356">
      <feGaussianBlur
         inkscape:collect="always"
         stdDeviation="2.5785294"
         id="feGaussianBlur7008" />
    </filter>
    <filter
       inkscape:collect="always"
       style="color-interpolation-filters:sRGB"
       id="filter7010"
       x="-2.5691093"
       y="-2.5691072"
       width="6.1382186"
       height="6.1382143">
      <feGaussianBlur
         inkscape:collect="always"
         stdDeviation="2.5785294"
         id="feGaussianBlur7012" />
    </filter>
    <filter
       inkscape:collect="always"
       style="color-interpolation-filters:sRGB"
       id="filter7014"
       x="-3.6224627"
       y="-3.6224627"
       width="8.2449255"
       height="8.2449255">
      <feGaussianBlur
         inkscape:collect="always"
         stdDeviation="2.5785294"
         id="feGaussianBlur7016" />
    </filter>
    <filter
       inkscape:collect="always"
       style="color-interpolation-filters:sRGB"
       id="filter7018"
       x="-1.879075"
       y="-1.879075"
       width="4.75815"
       height="4.75815">
      <feGaussianBlur
         inkscape:collect="always"
         stdDeviation="2.5785294"
         id="feGaussianBlur7020" />
    </filter>
    <filter
       inkscape:collect="always"
       style="color-interpolation-filters:sRGB"
       id="filter7022"
       x="-2.5691093"
       y="-2.5691093"
       width="6.1382186"
       height="6.1382186">
      <feGaussianBlur
         inkscape:collect="always"
         stdDeviation="2.5785294"
         id="feGaussianBlur7024" />
    </filter>
    <filter
       inkscape:collect="always"
       style="color-interpolation-filters:sRGB"
       id="filter7026"
       x="-1.8668987"
       y="-1.8668987"
       width="4.7337974"
       height="4.7337974">
      <feGaussianBlur
         inkscape:collect="always"
         stdDeviation="2.5785294"
         id="feGaussianBlur7028" />
    </filter>
    <filter
       inkscape:collect="always"
       style="color-interpolation-filters:sRGB"
       id="filter7030"
       x="-1.8978102"
       y="-1.8978148"
       width="4.7956203"
       height="4.7956296">
      <feGaussianBlur
         inkscape:collect="always"
         stdDeviation="2.5785294"
         id="feGaussianBlur7032" />
    </filter>
    <filter
       inkscape:collect="always"
       style="color-interpolation-filters:sRGB"
       id="filter7034"
       x="-1.7763972"
       y="-1.7763987"
       width="4.5527944"
       height="4.5527975">
      <feGaussianBlur
         inkscape:collect="always"
         stdDeviation="2.5785294"
         id="feGaussianBlur7036" />
    </filter>
    <filter
       inkscape:collect="always"
       style="color-interpolation-filters:sRGB"
       id="filter7038"
       x="-3.4964295"
       y="-3.4964295"
       width="7.992859"
       height="7.992859">
      <feGaussianBlur
         inkscape:collect="always"
         stdDeviation="2.5785294"
         id="feGaussianBlur7040" />
    </filter>
    <filter
       inkscape:collect="always"
       style="color-interpolation-filters:sRGB"
       id="filter7042"
       x="-4.1875105"
       y="-4.1875105"
       width="9.3750209"
       height="9.3750209">
      <feGaussianBlur
         inkscape:collect="always"
         stdDeviation="2.5785294"
         id="feGaussianBlur7044" />
    </filter>
    <filter
       inkscape:collect="always"
       style="color-interpolation-filters:sRGB"
       id="filter7046"
       x="-4.6426528"
       y="-4.6426528"
       width="10.285306"
       height="10.285306">
      <feGaussianBlur
         inkscape:collect="always"
         stdDeviation="2.5785294"
         id="feGaussianBlur7048" />
    </filter>
    <filter
       inkscape:collect="always"
       style="color-interpolation-filters:sRGB"
       id="filter7050"
       x="-1.475089"
       y="-1.475088"
       width="3.950178"
       height="3.9501759">
      <feGaussianBlur
         inkscape:collect="always"
         stdDeviation="2.5785294"
         id="feGaussianBlur7052" />
    </filter>
    <filter
       inkscape:collect="always"
       style="color-interpolation-filters:sRGB"
       id="filter7058"
       x="-1.5033659"
       y="-1.5033659"
       width="4.0067318"
       height="4.0067318">
      <feGaussianBlur
         inkscape:collect="always"
         stdDeviation="2.5785294"
         id="feGaussianBlur7060" />
    </filter>
    <filter
       inkscape:collect="always"
       style="color-interpolation-filters:sRGB"
       id="filter7062"
       x="-0.90756005"
       y="-0.90756138"
       width="2.8151201"
       height="2.8151228">
      <feGaussianBlur
         inkscape:collect="always"
         stdDeviation="2.5785294"
         id="feGaussianBlur7064" />
    </filter>
    <filter
       inkscape:collect="always"
       style="color-interpolation-filters:sRGB"
       id="filter7066"
       x="-0.53175421"
       y="-0.53175467"
       width="2.0635084"
       height="2.0635093">
      <feGaussianBlur
         inkscape:collect="always"
         stdDeviation="2.5785294"
         id="feGaussianBlur7068" />
    </filter>
    <filter
       inkscape:collect="always"
       style="color-interpolation-filters:sRGB"
       id="filter7070"
       x="-0.90756005"
       y="-0.90756138"
       width="2.8151201"
       height="2.8151228">
      <feGaussianBlur
         inkscape:collect="always"
         stdDeviation="2.5785294"
         id="feGaussianBlur7072" />
    </filter>
    <filter
       inkscape:collect="always"
       style="color-interpolation-filters:sRGB"
       id="filter7074"
       x="-1.0518527"
       y="-1.0518535"
       width="3.1037055"
       height="3.1037069">
      <feGaussianBlur
         inkscape:collect="always"
         stdDeviation="2.5785294"
         id="feGaussianBlur7076" />
    </filter>
    <filter
       inkscape:collect="always"
       style="color-interpolation-filters:sRGB"
       id="filter7078"
       x="-0.26651788"
       y="-0.26651799"
       width="1.5330358"
       height="1.533036">
      <feGaussianBlur
         inkscape:collect="always"
         stdDeviation="2.5785294"
         id="feGaussianBlur7080" />
    </filter>
    <filter
       style="color-interpolation-filters:sRGB"
       inkscape:label="Blur"
       id="filter1330"
       x="-0.00016425416"
       y="-0.00016425416"
       width="1.0003285"
       height="1.0003285">
      <feGaussianBlur
         stdDeviation="0.012156458"
         result="blur"
         id="feGaussianBlur1328" />
    </filter>
    <filter
       inkscape:collect="always"
       style="color-interpolation-filters:sRGB"
       id="filter1721"
       x="-0.16875"
       y="-0.16875"
       width="1.3375"
       height="1.3375">
      <feGaussianBlur
         inkscape:collect="always"
         stdDeviation="12.489195"
         id="feGaussianBlur1723" />
    </filter>
    <filter
       inkscape:collect="always"
       style="color-interpolation-filters:sRGB"
       id="filter2061"
       x="-0.26620919"
       y="-0.26620923"
       width="1.5324184"
       height="1.5324185">
      <feGaussianBlur
         inkscape:collect="always"
         stdDeviation="3.735181"
         id="feGaussianBlur2063" />
    </filter>
    <linearGradient
       inkscape:collect="always"
       xlink:href="#linearGradient4385"
       id="linearGradient4387"
       x1="16.680551"
       y1="130.18912"
       x2="254.25278"
       y2="130.18912"
       gradientUnits="userSpaceOnUse" />
    <filter
       inkscape:collect="always"
       style="color-interpolation-filters:sRGB"
       id="filter7385"
       x="-0.32515639"
       y="-0.27529444"
       width="1.6503128"
       height="1.4077163">
      <feGaussianBlur
         inkscape:collect="always"
         stdDeviation="11.575644"
         id="feGaussianBlur7387" />
    </filter>
  </defs>
  <g
     inkscape:groupmode="layer"
     id="layer7"
     inkscape:label="Root">
    <rect
       style="display:inline;opacity:1;fill:url(#radialGradient3407);fill-opacity:1;stroke-width:4.25932"
       id="rect3005"
       width="270.93332"
       height="270.93332"
       x="0"
       y="-1.110223e-16" />
    <g
       id="g4015"
       inkscape:label="Content">
      <g
         id="g3911"
         inkscape:label="Moon and Stars"
         transform="translate(0,-6.3763528)">
        <g
           id="g3820"
           inkscape:label="Stars">
          <path
             id="path3756"
             style="opacity:1;fill:#ffffff;stroke-width:1.7655"
             d="m 133.76802,140.86402 c -6e-5,-4e-5 -5.80503,-7e-5 -8.70769,2.90261 -2.90268,2.90266 -2.90264,8.70764 -2.90262,8.70769 3e-5,4e-5 6e-5,-5.80571 -2.90215,-8.70805 -2.90223,-2.90232 -8.70722,-2.90229 -8.70726,-2.90225 -3e-5,2e-5 5.80495,6e-5 8.7072,-2.90221 2.90227,-2.90226 2.90224,-8.70724 2.90221,-8.7072 -2e-5,5e-5 -6e-5,5.80425 2.90266,8.70686 2.9027,2.90261 8.70768,2.90257 8.70765,2.90255 z"
             sodipodi:nodetypes="ccccccccc" />
          <path
             id="path3756-2"
             style="fill:#ffffff;stroke-width:0.447341"
             d="m 129.9417,77.25822 c -2e-5,-9e-6 -1.47088,-1.8e-5 -2.20635,0.735462 -0.73548,0.735474 -0.73547,2.206337 -0.73546,2.206349 0,1.2e-5 1e-5,-1.471047 -0.73535,-2.206439 -0.73536,-0.73539 -2.20623,-0.735381 -2.20624,-0.735372 -1e-5,6e-6 1.47085,1.5e-5 2.20623,-0.735359 0.73537,-0.735375 0.73536,-2.206238 0.73536,-2.206226 -10e-6,1.2e-5 -2e-5,1.470677 0.73547,2.206138 0.73549,0.735462 2.20635,0.735453 2.20634,0.735447 z"
             sodipodi:nodetypes="ccccccccc" />
          <path
             id="path3756-7"
             style="fill:#ffffff;stroke-width:0.518463"
             d="m 177.50523,155.0457 c -2e-5,-1e-5 -1.70473,-2e-5 -2.55714,0.8524 -0.85241,0.8524 -0.8524,2.55712 -0.85239,2.55713 1e-5,2e-5 1e-5,-1.70492 -0.85226,-2.55724 -0.85228,-0.85231 -2.557,-0.8523 -2.55701,-0.85229 -1e-5,1e-5 1.7047,2e-5 2.55699,-0.85227 0.85229,-0.85229 0.85229,-2.55701 0.85228,-2.55699 -1e-5,1e-5 -2e-5,1.7045 0.8524,2.55689 0.85243,0.85239 2.55714,0.85238 2.55713,0.85237 z"
             sodipodi:nodetypes="ccccccccc" />
          <path
             id="path3756-7-0"
             style="fill:#ffffff;stroke-width:0.884877"
             d="m 185.52975,77.291962 c -3e-5,-1.4e-5 -2.90951,-2.8e-5 -4.36434,1.454828 -1.45484,1.454813 -1.45482,4.36431 -1.4548,4.364325 2e-5,2.8e-5 2e-5,-2.909843 -1.45458,-4.364512 -1.45461,-1.454669 -4.36411,-1.454655 -4.36412,-1.454641 -2e-5,2.9e-5 2.90947,4.4e-5 4.36409,-1.454582 1.45463,-1.454627 1.45463,-4.364123 1.45461,-4.364095 -2e-5,1.5e-5 -4e-5,2.909123 1.45482,4.363922 1.45485,1.454799 4.36434,1.454784 4.36432,1.454755 z"
             sodipodi:nodetypes="ccccccccc" />
          <path
             id="path3756-7-9"
             style="fill:#ffffff;stroke-width:0.518463"
             d="m 142.84482,127.52903 c -2e-5,-1e-5 -1.70473,-2e-5 -2.55714,0.8524 -0.85241,0.8524 -0.8524,2.55712 -0.85239,2.55713 1e-5,2e-5 1e-5,-1.70492 -0.85226,-2.55724 -0.85228,-0.85231 -2.557,-0.8523 -2.55701,-0.85229 -10e-6,10e-6 1.7047,2e-5 2.55699,-0.85227 0.85229,-0.85229 0.85229,-2.55701 0.85228,-2.55699 -1e-5,1e-5 -2e-5,1.7045 0.8524,2.55689 0.85243,0.85239 2.55714,0.85238 2.55713,0.85237 z"
             sodipodi:nodetypes="ccccccccc" />
          <path
             id="path3756-7-3"
             style="fill:#ffffff;stroke-width:0.312989"
             d="m 194.38201,138.87789 c -1e-5,0 -1.02912,-1e-5 -1.54371,0.51458 -0.51458,0.51459 -0.51458,1.5437 -0.51457,1.54371 0,1e-5 0,-1.02924 -0.5145,-1.54377 -0.51451,-0.51453 -1.54362,-0.51452 -1.54363,-0.51452 -1e-5,1e-5 1.0291,1e-5 1.54362,-0.5145 0.51451,-0.51452 0.51451,-1.54363 0.51451,-1.54362 -1e-5,1e-5 -1e-5,1.02898 0.51458,1.54356 0.5146,0.51457 1.54371,0.51457 1.5437,0.51456 z"
             sodipodi:nodetypes="ccccccccc" />
          <path
             id="path6415"
             style="opacity:1;fill:#ffffff;stroke-width:2.56042"
             d="m 176.8811,105.16169 c -8e-5,-3e-5 -8.41875,-8e-5 -12.62832,4.20951 -4.20962,4.2096 -4.20957,12.62828 -4.20953,12.62835 4e-5,7e-5 8e-5,-8.41973 -4.20885,-12.62885 -4.20895,-4.20909 -12.62766,-4.20904 -12.6277,-4.20901 -6e-5,5e-5 8.41862,1e-4 12.62762,-4.2089 4.20901,-4.209021 4.20897,-12.627702 4.20893,-12.627635 -4e-5,7.1e-5 -9e-5,8.417614 4.20958,12.627125 4.20965,4.20951 12.62833,4.20946 12.62827,4.20941 z"
             sodipodi:nodetypes="ccccccccc" />
          <path
             id="path6607"
             style="opacity:1;fill:#ffffff;stroke-width:7.41831"
             d="m 111.44812,99.546509 a 2.0976614,2.0976614 0 0 1 -2.09766,2.097661 2.0976614,2.0976614 0 0 1 -2.09766,-2.097661 2.0976614,2.0976614 0 0 1 2.09766,-2.097662 2.0976614,2.0976614 0 0 1 2.09766,2.097662 z" />
          <path
             id="path6607-6"
             style="fill:#ffffff;stroke-width:2.35697"
             d="m 141.6894,166.42292 a 0.66647654,0.66647654 0 0 1 -0.66648,0.66648 0.66647654,0.66647654 0 0 1 -0.66648,-0.66648 0.66647654,0.66647654 0 0 1 0.66648,-0.66648 0.66647654,0.66647654 0 0 1 0.66648,0.66648 z" />
          <path
             id="path6607-0"
             style="fill:#ffffff;stroke-width:2.61318"
             d="m 208.43684,101.86458 a 0.73892447,0.73892447 0 0 1 -0.73892,0.73892 0.73892447,0.73892447 0 0 1 -0.73892,-0.73892 0.73892447,0.73892447 0 0 1 0.73892,-0.73892 0.73892447,0.73892447 0 0 1 0.73892,0.73892 z" />
          <path
             id="path6607-62"
             style="fill:#ffffff;stroke-width:3.12965"
             d="m 116.77247,120.91458 a 0.88496521,0.88496521 0 0 1 -0.88497,0.88497 0.88496521,0.88496521 0 0 1 -0.88497,-0.88497 0.88496521,0.88496521 0 0 1 0.88497,-0.88497 0.88496521,0.88496521 0 0 1 0.88497,0.88497 z" />
          <path
             id="path6607-61"
             style="fill:#ffffff;stroke-width:6.16002"
             d="m 143.02936,60.060416 a 1.7418573,1.7418573 0 0 1 -1.74186,1.741859 1.7418573,1.7418573 0 0 1 -1.74186,-1.741859 1.7418573,1.7418573 0 0 1 1.74186,-1.741858 1.7418573,1.7418573 0 0 1 1.74186,1.741858 z" />
          <path
             id="path6607-8"
             style="fill:#ffffff;stroke-width:5.76594"
             d="m 89.736674,127.26458 a 1.6304236,1.6304236 0 0 1 -1.630424,1.63042 1.6304236,1.6304236 0 0 1 -1.630424,-1.63042 1.6304236,1.6304236 0 0 1 1.630424,-1.63042 1.6304236,1.6304236 0 0 1 1.630424,1.63042 z" />
          <path
             id="path6607-7"
             style="fill:#ffffff;stroke-width:5.86141"
             d="m 109.872,169.06875 a 1.6574205,1.6574205 0 0 1 -1.65742,1.65742 1.6574205,1.6574205 0 0 1 -1.65742,-1.65742 1.6574205,1.6574205 0 0 1 1.65742,-1.65742 1.6574205,1.6574205 0 0 1 1.65742,1.65742 z" />
          <path
             id="path6607-9"
             style="fill:#ffffff;stroke-width:4.25932"
             d="m 172.38982,134.67292 a 1.2043999,1.2043999 0 0 1 -1.2044,1.2044 1.2043999,1.2043999 0 0 1 -1.2044,-1.2044 1.2043999,1.2043999 0 0 1 1.2044,-1.2044 1.2043999,1.2043999 0 0 1 1.2044,1.2044 z" />
          <path
             id="path6607-2"
             style="fill:#ffffff;stroke-width:5.82342"
             d="m 168.0696,177.53542 a 1.6466775,1.6466775 0 0 1 -1.64668,1.64668 1.6466775,1.6466775 0 0 1 -1.64668,-1.64668 1.6466775,1.6466775 0 0 1 1.64668,-1.64668 1.6466775,1.6466775 0 0 1 1.64668,1.64668 z" />
          <path
             id="path6607-02"
             style="fill:#ffffff;stroke-width:3.02078"
             d="m 205.64078,122.57013 a 0.85417906,0.85417906 0 0 1 -0.85418,0.85418 0.85417906,0.85417906 0 0 1 -0.85418,-0.85418 0.85417906,0.85417906 0 0 1 0.85418,-0.85418 0.85417906,0.85417906 0 0 1 0.85418,0.85418 z" />
          <path
             id="path6607-3"
             style="fill:#ffffff;stroke-width:4.25932"
             d="m 193.2919,92.86875 a 1.2043999,1.2043999 0 0 1 -1.2044,1.204401 1.2043999,1.2043999 0 0 1 -1.2044,-1.204401 1.2043999,1.2043999 0 0 1 1.2044,-1.204401 1.2043999,1.2043999 0 0 1 1.2044,1.204401 z" />
          <path
             id="path6607-75"
             style="fill:#ffffff;stroke-width:2.02579"
             d="m 101.1145,72.231249 a 0.57282803,0.57282803 0 0 1 -0.57283,0.572829 0.57282803,0.57282803 0 0 1 -0.57283,-0.572829 0.57282803,0.57282803 0 0 1 0.57283,-0.572828 0.57282803,0.57282803 0 0 1 0.57283,0.572828 z" />
          <path
             id="path6607-92"
             style="fill:#ffffff;stroke-width:3.62111"
             d="m 133.58018,98.689583 a 1.0239343,1.0239343 0 0 1 -1.02393,1.023935 1.0239343,1.0239343 0 0 1 -1.02393,-1.023935 1.0239343,1.0239343 0 0 1 1.02393,-1.023934 1.0239343,1.0239343 0 0 1 1.02393,1.023934 z" />
          <path
             id="path6607-28"
             style="fill:#ffffff;stroke-width:2.56053"
             d="m 154.18237,76.464583 a 0.72403745,0.72403745 0 0 1 -0.72404,0.724038 0.72403745,0.72403745 0 0 1 -0.72404,-0.724038 0.72403745,0.72403745 0 0 1 0.72404,-0.724037 0.72403745,0.72403745 0 0 1 0.72404,0.724037 z" />
          <path
             id="path6872"
             style="opacity:1;fill:#ffffff;stroke-width:1.7655;filter:url(#filter7078)"
             d="m 133.76802,140.86402 c -6e-5,-4e-5 -5.80503,-7e-5 -8.70769,2.90261 -2.90268,2.90266 -2.90264,8.70764 -2.90262,8.70769 3e-5,4e-5 6e-5,-5.80571 -2.90215,-8.70805 -2.90223,-2.90232 -8.70722,-2.90229 -8.70726,-2.90225 -3e-5,2e-5 5.80495,6e-5 8.7072,-2.90221 2.90227,-2.90226 2.90224,-8.70724 2.90221,-8.7072 -2e-5,5e-5 -6e-5,5.80425 2.90266,8.70686 2.9027,2.90261 8.70768,2.90257 8.70765,2.90255 z"
             sodipodi:nodetypes="ccccccccc" />
          <path
             id="path6874"
             style="opacity:1;fill:#ffffff;stroke-width:0.447341;filter:url(#filter7074)"
             d="m 129.9417,77.25822 c -2e-5,-9e-6 -1.47088,-1.8e-5 -2.20635,0.735462 -0.73548,0.735474 -0.73547,2.206337 -0.73546,2.206349 0,1.2e-5 1e-5,-1.471047 -0.73535,-2.206439 -0.73536,-0.73539 -2.20623,-0.735381 -2.20624,-0.735372 -1e-5,6e-6 1.47085,1.5e-5 2.20623,-0.735359 0.73537,-0.735375 0.73536,-2.206238 0.73536,-2.206226 -10e-6,1.2e-5 -2e-5,1.470677 0.73547,2.206138 0.73549,0.735462 2.20635,0.735453 2.20634,0.735447 z"
             sodipodi:nodetypes="ccccccccc" />
          <path
             id="path6876"
             style="opacity:1;fill:#ffffff;stroke-width:0.518463;filter:url(#filter7070)"
             d="m 177.50523,155.0457 c -2e-5,-1e-5 -1.70473,-2e-5 -2.55714,0.8524 -0.85241,0.8524 -0.8524,2.55712 -0.85239,2.55713 1e-5,2e-5 1e-5,-1.70492 -0.85226,-2.55724 -0.85228,-0.85231 -2.557,-0.8523 -2.55701,-0.85229 -1e-5,1e-5 1.7047,2e-5 2.55699,-0.85227 0.85229,-0.85229 0.85229,-2.55701 0.85228,-2.55699 -1e-5,1e-5 -2e-5,1.7045 0.8524,2.55689 0.85243,0.85239 2.55714,0.85238 2.55713,0.85237 z"
             sodipodi:nodetypes="ccccccccc" />
          <path
             id="path6878"
             style="opacity:1;fill:#ffffff;stroke-width:0.884877;filter:url(#filter7066)"
             d="m 185.52975,77.291962 c -3e-5,-1.4e-5 -2.90951,-2.8e-5 -4.36434,1.454828 -1.45484,1.454813 -1.45482,4.36431 -1.4548,4.364325 2e-5,2.8e-5 2e-5,-2.909843 -1.45458,-4.364512 -1.45461,-1.454669 -4.36411,-1.454655 -4.36412,-1.454641 -2e-5,2.9e-5 2.90947,4.4e-5 4.36409,-1.454582 1.45463,-1.454627 1.45463,-4.364123 1.45461,-4.364095 -2e-5,1.5e-5 -4e-5,2.909123 1.45482,4.363922 1.45485,1.454799 4.36434,1.454784 4.36432,1.454755 z"
             sodipodi:nodetypes="ccccccccc" />
          <path
             id="path6880"
             style="opacity:1;fill:#ffffff;stroke-width:0.518463;filter:url(#filter7062)"
             d="m 142.84482,127.52903 c -2e-5,-1e-5 -1.70473,-2e-5 -2.55714,0.8524 -0.85241,0.8524 -0.8524,2.55712 -0.85239,2.55713 1e-5,2e-5 1e-5,-1.70492 -0.85226,-2.55724 -0.85228,-0.85231 -2.557,-0.8523 -2.55701,-0.85229 -10e-6,10e-6 1.7047,2e-5 2.55699,-0.85227 0.85229,-0.85229 0.85229,-2.55701 0.85228,-2.55699 -1e-5,1e-5 -2e-5,1.7045 0.8524,2.55689 0.85243,0.85239 2.55714,0.85238 2.55713,0.85237 z"
             sodipodi:nodetypes="ccccccccc" />
          <path
             id="path6882"
             style="opacity:1;fill:#ffffff;stroke-width:0.312989;filter:url(#filter7058)"
             d="m 194.38201,138.87789 c -1e-5,0 -1.02912,-1e-5 -1.54371,0.51458 -0.51458,0.51459 -0.51458,1.5437 -0.51457,1.54371 0,1e-5 0,-1.02924 -0.5145,-1.54377 -0.51451,-0.51453 -1.54362,-0.51452 -1.54363,-0.51452 -1e-5,1e-5 1.0291,1e-5 1.54362,-0.5145 0.51451,-0.51452 0.51451,-1.54363 0.51451,-1.54362 -1e-5,1e-5 -1e-5,1.02898 0.51458,1.54356 0.5146,0.51457 1.54371,0.51457 1.5437,0.51456 z"
             sodipodi:nodetypes="ccccccccc" />
          <path
             id="path6886"
             style="opacity:1;fill:#ffffff;stroke-width:7.41831;filter:url(#filter7050)"
             d="m 111.44812,99.546509 a 2.0976614,2.0976614 0 0 1 -2.09766,2.097661 2.0976614,2.0976614 0 0 1 -2.09766,-2.097661 2.0976614,2.0976614 0 0 1 2.09766,-2.097662 2.0976614,2.0976614 0 0 1 2.09766,2.097662 z" />
          <path
             id="path6888"
             style="opacity:1;fill:#ffffff;stroke-width:2.35697;filter:url(#filter7046)"
             d="m 141.6894,166.42292 a 0.66647654,0.66647654 0 0 1 -0.66648,0.66648 0.66647654,0.66647654 0 0 1 -0.66648,-0.66648 0.66647654,0.66647654 0 0 1 0.66648,-0.66648 0.66647654,0.66647654 0 0 1 0.66648,0.66648 z" />
          <path
             id="path6890"
             style="opacity:1;fill:#ffffff;stroke-width:2.61318;filter:url(#filter7042)"
             d="m 208.43684,101.86458 a 0.73892447,0.73892447 0 0 1 -0.73892,0.73892 0.73892447,0.73892447 0 0 1 -0.73892,-0.73892 0.73892447,0.73892447 0 0 1 0.73892,-0.73892 0.73892447,0.73892447 0 0 1 0.73892,0.73892 z" />
          <path
             id="path6892"
             style="opacity:1;fill:#ffffff;stroke-width:3.12965;filter:url(#filter7038)"
             d="m 116.77247,120.91458 a 0.88496521,0.88496521 0 0 1 -0.88497,0.88497 0.88496521,0.88496521 0 0 1 -0.88497,-0.88497 0.88496521,0.88496521 0 0 1 0.88497,-0.88497 0.88496521,0.88496521 0 0 1 0.88497,0.88497 z" />
          <path
             id="path6894"
             style="opacity:1;fill:#ffffff;stroke-width:6.16002;filter:url(#filter7034)"
             d="m 143.02936,60.060416 a 1.7418573,1.7418573 0 0 1 -1.74186,1.741859 1.7418573,1.7418573 0 0 1 -1.74186,-1.741859 1.7418573,1.7418573 0 0 1 1.74186,-1.741858 1.7418573,1.7418573 0 0 1 1.74186,1.741858 z" />
          <path
             id="path6896"
             style="opacity:1;fill:#ffffff;stroke-width:5.76594;filter:url(#filter7030)"
             d="m 89.736674,127.26458 a 1.6304236,1.6304236 0 0 1 -1.630424,1.63042 1.6304236,1.6304236 0 0 1 -1.630424,-1.63042 1.6304236,1.6304236 0 0 1 1.630424,-1.63042 1.6304236,1.6304236 0 0 1 1.630424,1.63042 z" />
          <path
             id="path6898"
             style="opacity:1;fill:#ffffff;stroke-width:5.86141;filter:url(#filter7026)"
             d="m 109.872,169.06875 a 1.6574205,1.6574205 0 0 1 -1.65742,1.65742 1.6574205,1.6574205 0 0 1 -1.65742,-1.65742 1.6574205,1.6574205 0 0 1 1.65742,-1.65742 1.6574205,1.6574205 0 0 1 1.65742,1.65742 z" />
          <path
             id="path6900"
             style="opacity:1;fill:#ffffff;stroke-width:4.25932;filter:url(#filter7022)"
             d="m 172.38982,134.67292 a 1.2043999,1.2043999 0 0 1 -1.2044,1.2044 1.2043999,1.2043999 0 0 1 -1.2044,-1.2044 1.2043999,1.2043999 0 0 1 1.2044,-1.2044 1.2043999,1.2043999 0 0 1 1.2044,1.2044 z" />
          <path
             id="path6902"
             style="opacity:1;fill:#ffffff;stroke-width:5.82342;filter:url(#filter7018)"
             d="m 168.0696,177.53542 a 1.6466775,1.6466775 0 0 1 -1.64668,1.64668 1.6466775,1.6466775 0 0 1 -1.64668,-1.64668 1.6466775,1.6466775 0 0 1 1.64668,-1.64668 1.6466775,1.6466775 0 0 1 1.64668,1.64668 z" />
          <path
             id="path6904"
             style="opacity:1;fill:#ffffff;stroke-width:3.02078;filter:url(#filter7014)"
             d="m 205.64078,122.57013 a 0.85417906,0.85417906 0 0 1 -0.85418,0.85418 0.85417906,0.85417906 0 0 1 -0.85418,-0.85418 0.85417906,0.85417906 0 0 1 0.85418,-0.85418 0.85417906,0.85417906 0 0 1 0.85418,0.85418 z" />
          <path
             id="path6906"
             style="opacity:1;fill:#ffffff;stroke-width:4.25932;filter:url(#filter7010)"
             d="m 193.2919,92.86875 a 1.2043999,1.2043999 0 0 1 -1.2044,1.204401 1.2043999,1.2043999 0 0 1 -1.2044,-1.204401 1.2043999,1.2043999 0 0 1 1.2044,-1.204401 1.2043999,1.2043999 0 0 1 1.2044,1.204401 z" />
          <path
             id="path6908"
             style="opacity:1;fill:#ffffff;stroke-width:2.02579;filter:url(#filter7006)"
             d="m 101.1145,72.231249 a 0.57282803,0.57282803 0 0 1 -0.57283,0.572829 0.57282803,0.57282803 0 0 1 -0.57283,-0.572829 0.57282803,0.57282803 0 0 1 0.57283,-0.572828 0.57282803,0.57282803 0 0 1 0.57283,0.572828 z" />
          <path
             id="path6910"
             style="opacity:1;fill:#ffffff;stroke-width:3.62111;filter:url(#filter7002)"
             d="m 133.58018,98.689583 a 1.0239343,1.0239343 0 0 1 -1.02393,1.023935 1.0239343,1.0239343 0 0 1 -1.02393,-1.023935 1.0239343,1.0239343 0 0 1 1.02393,-1.023934 1.0239343,1.0239343 0 0 1 1.02393,1.023934 z" />
          <path
             id="path6912"
             style="opacity:1;fill:#ffffff;stroke-width:2.56053;filter:url(#filter6998)"
             d="m 154.18237,76.464583 a 0.72403745,0.72403745 0 0 1 -0.72404,0.724038 0.72403745,0.72403745 0 0 1 -0.72404,-0.724038 0.72403745,0.72403745 0 0 1 0.72404,-0.724037 0.72403745,0.72403745 0 0 1 0.72404,0.724037 z" />
          <path
             id="path2059"
             style="opacity:1;mix-blend-mode:normal;fill:#ffffff;stroke-width:2.56042;filter:url(#filter2061)"
             d="m 176.8811,105.16169 c -8e-5,-3e-5 -8.41875,-8e-5 -12.62832,4.20951 -4.20962,4.2096 -4.20957,12.62828 -4.20953,12.62835 4e-5,7e-5 8e-5,-8.41973 -4.20885,-12.62885 -4.20895,-4.20909 -12.62766,-4.20904 -12.6277,-4.20901 -6e-5,5e-5 8.41862,1e-4 12.62762,-4.2089 4.20901,-4.209021 4.20897,-12.627702 4.20893,-12.627635 -4e-5,7.1e-5 -9e-5,8.417614 4.20958,12.627125 4.20965,4.20951 12.62833,4.20946 12.62827,4.20941 z"
             sodipodi:nodetypes="ccccccccc" />
        </g>
        <g
           id="g3773"
           inkscape:label="Crescent">
          <path
             id="path3673"
             style="opacity:1;fill:#a2b9e3;fill-opacity:1;stroke-width:7.05093;filter:url(#filter1721)"
             d="m 135.46667,46.654619 a 88.812049,88.812049 0 0 0 -88.812051,88.812051 88.812049,88.812049 0 0 0 88.812051,88.81205 88.812049,88.812049 0 0 0 88.81205,-88.81205 88.812049,88.812049 0 0 0 -0.34246,-7.71456 74.348801,74.348801 0 0 1 -74.00641,67.60025 74.348801,74.348801 0 0 1 -74.348869,-74.34887 74.348801,74.348801 0 0 1 67.598259,-74.00641 88.812049,88.812049 0 0 0 -7.71257,-0.342461 z" />
          <path
             id="path387"
             style="fill:#ededed;fill-opacity:1;stroke-width:7.05093"
             d="m 135.46667,46.654619 a 88.812049,88.812049 0 0 0 -88.812051,88.812051 88.812049,88.812049 0 0 0 88.812051,88.81205 88.812049,88.812049 0 0 0 88.81205,-88.81205 88.812049,88.812049 0 0 0 -0.34246,-7.71456 74.348801,74.348801 0 0 1 -74.00641,67.60025 74.348801,74.348801 0 0 1 -74.348869,-74.34887 74.348801,74.348801 0 0 1 67.598259,-74.00641 88.812049,88.812049 0 0 0 -7.71257,-0.342461 z" />
        </g>
      </g>
      <text
         xml:space="preserve"
         style="font-style:normal;font-variant:normal;font-weight:normal;font-stretch:normal;font-size:15.875px;line-height:0;font-family:Quicksand;-inkscape-font-specification:Quicksand;letter-spacing:7.06387px;white-space:pre;inline-size:140.804;display:inline;opacity:1;fill:#a2b9e3;fill-opacity:1;stroke-width:4.25932"
         x="125.2513"
         y="237.37198"
         id="text1827"
         transform="matrix(1.0788037,0,0,1.0788037,-67.840965,-6.1749819)"
         sodipodi:insensitive="true"
         inkscape:label="Text"><tspan
           x="125.2513"
           y="237.37198"
           id="tspan7729"><tspan
             style="stroke-width:4.25931"
             id="tspan7727">NOCTYRIS</tspan></tspan></text>
    </g>
    <g
       id="g4379"
       inkscape:label="Content"
       style="opacity:0.8061744;mix-blend-mode:normal;fill:url(#linearGradient4387);fill-opacity:1;filter:url(#filter7385)">
      <g
         id="g4373"
         inkscape:label="Moon and Stars"
         transform="translate(0,-6.3763528)"
         style="fill:url(#linearGradient4387);fill-opacity:1">
        <g
           id="g4365"
           inkscape:label="Stars"
           style="fill:url(#linearGradient4387);fill-opacity:1">
          <path
             id="path4281"
             style="opacity:1;fill:url(#linearGradient4387);fill-opacity:1;stroke-width:1.7655"
             d="m 133.76802,140.86402 c -6e-5,-4e-5 -5.80503,-7e-5 -8.70769,2.90261 -2.90268,2.90266 -2.90264,8.70764 -2.90262,8.70769 3e-5,4e-5 6e-5,-5.80571 -2.90215,-8.70805 -2.90223,-2.90232 -8.70722,-2.90229 -8.70726,-2.90225 -3e-5,2e-5 5.80495,6e-5 8.7072,-2.90221 2.90227,-2.90226 2.90224,-8.70724 2.90221,-8.7072 -2e-5,5e-5 -6e-5,5.80425 2.90266,8.70686 2.9027,2.90261 8.70768,2.90257 8.70765,2.90255 z"
             sodipodi:nodetypes="ccccccccc" />
          <path
             id="path4283"
             style="fill:url(#linearGradient4387);fill-opacity:1;stroke-width:0.447341"
             d="m 129.9417,77.25822 c -2e-5,-9e-6 -1.47088,-1.8e-5 -2.20635,0.735462 -0.73548,0.735474 -0.73547,2.206337 -0.73546,2.206349 0,1.2e-5 1e-5,-1.471047 -0.73535,-2.206439 -0.73536,-0.73539 -2.20623,-0.735381 -2.20624,-0.735372 -1e-5,6e-6 1.47085,1.5e-5 2.20623,-0.735359 0.73537,-0.735375 0.73536,-2.206238 0.73536,-2.206226 -10e-6,1.2e-5 -2e-5,1.470677 0.73547,2.206138 0.73549,0.735462 2.20635,0.735453 2.20634,0.735447 z"
             sodipodi:nodetypes="ccccccccc" />
          <path
             id="path4285"
             style="fill:url(#linearGradient4387);fill-opacity:1;stroke-width:0.518463"
             d="m 177.50523,155.0457 c -2e-5,-1e-5 -1.70473,-2e-5 -2.55714,0.8524 -0.85241,0.8524 -0.8524,2.55712 -0.85239,2.55713 1e-5,2e-5 1e-5,-1.70492 -0.85226,-2.55724 -0.85228,-0.85231 -2.557,-0.8523 -2.55701,-0.85229 -1e-5,1e-5 1.7047,2e-5 2.55699,-0.85227 0.85229,-0.85229 0.85229,-2.55701 0.85228,-2.55699 -1e-5,1e-5 -2e-5,1.7045 0.8524,2.55689 0.85243,0.85239 2.55714,0.85238 2.55713,0.85237 z"
             sodipodi:nodetypes="ccccccccc" />
          <path
             id="path4287"
             style="fill:url(#linearGradient4387);fill-opacity:1;stroke-width:0.884877"
             d="m 185.52975,77.291962 c -3e-5,-1.4e-5 -2.90951,-2.8e-5 -4.36434,1.454828 -1.45484,1.454813 -1.45482,4.36431 -1.4548,4.364325 2e-5,2.8e-5 2e-5,-2.909843 -1.45458,-4.364512 -1.45461,-1.454669 -4.36411,-1.454655 -4.36412,-1.454641 -2e-5,2.9e-5 2.90947,4.4e-5 4.36409,-1.454582 1.45463,-1.454627 1.45463,-4.364123 1.45461,-4.364095 -2e-5,1.5e-5 -4e-5,2.909123 1.45482,4.363922 1.45485,1.454799 4.36434,1.454784 4.36432,1.454755 z"
             sodipodi:nodetypes="ccccccccc" />
          <path
             id="path4289"
             style="fill:url(#linearGradient4387);fill-opacity:1;stroke-width:0.518463"
             d="m 142.84482,127.52903 c -2e-5,-1e-5 -1.70473,-2e-5 -2.55714,0.8524 -0.85241,0.8524 -0.8524,2.55712 -0.85239,2.55713 1e-5,2e-5 1e-5,-1.70492 -0.85226,-2.55724 -0.85228,-0.85231 -2.557,-0.8523 -2.55701,-0.85229 -10e-6,10e-6 1.7047,2e-5 2.55699,-0.85227 0.85229,-0.85229 0.85229,-2.55701 0.85228,-2.55699 -1e-5,1e-5 -2e-5,1.7045 0.8524,2.55689 0.85243,0.85239 2.55714,0.85238 2.55713,0.85237 z"
             sodipodi:nodetypes="ccccccccc" />
          <path
             id="path4291"
             style="fill:url(#linearGradient4387);fill-opacity:1;stroke-width:0.312989"
             d="m 194.38201,138.87789 c -1e-5,0 -1.02912,-1e-5 -1.54371,0.51458 -0.51458,0.51459 -0.51458,1.5437 -0.51457,1.54371 0,1e-5 0,-1.02924 -0.5145,-1.54377 -0.51451,-0.51453 -1.54362,-0.51452 -1.54363,-0.51452 -1e-5,1e-5 1.0291,1e-5 1.54362,-0.5145 0.51451,-0.51452 0.51451,-1.54363 0.51451,-1.54362 -1e-5,1e-5 -1e-5,1.02898 0.51458,1.54356 0.5146,0.51457 1.54371,0.51457 1.5437,0.51456 z"
             sodipodi:nodetypes="ccccccccc" />
          <path
             id="path4293"
             style="opacity:1;fill:url(#linearGradient4387);fill-opacity:1;stroke-width:2.56042"
             d="m 176.8811,105.16169 c -8e-5,-3e-5 -8.41875,-8e-5 -12.62832,4.20951 -4.20962,4.2096 -4.20957,12.62828 -4.20953,12.62835 4e-5,7e-5 8e-5,-8.41973 -4.20885,-12.62885 -4.20895,-4.20909 -12.62766,-4.20904 -12.6277,-4.20901 -6e-5,5e-5 8.41862,1e-4 12.62762,-4.2089 4.20901,-4.209021 4.20897,-12.627702 4.20893,-12.627635 -4e-5,7.1e-5 -9e-5,8.417614 4.20958,12.627125 4.20965,4.20951 12.62833,4.20946 12.62827,4.20941 z"
             sodipodi:nodetypes="ccccccccc" />
          <path
             id="path4295"
             style="opacity:1;fill:url(#linearGradient4387);fill-opacity:1;stroke-width:7.41831"
             d="m 111.44812,99.546509 a 2.0976614,2.0976614 0 0 1 -2.09766,2.097661 2.0976614,2.0976614 0 0 1 -2.09766,-2.097661 2.0976614,2.0976614 0 0 1 2.09766,-2.097662 2.0976614,2.0976614 0 0 1 2.09766,2.097662 z" />
          <path
             id="path4297"
             style="fill:url(#linearGradient4387);fill-opacity:1;stroke-width:2.35697"
             d="m 141.6894,166.42292 a 0.66647654,0.66647654 0 0 1 -0.66648,0.66648 0.66647654,0.66647654 0 0 1 -0.66648,-0.66648 0.66647654,0.66647654 0 0 1 0.66648,-0.66648 0.66647654,0.66647654 0 0 1 0.66648,0.66648 z" />
          <path
             id="path4299"
             style="fill:url(#linearGradient4387);fill-opacity:1;stroke-width:2.61318"
             d="m 208.43684,101.86458 a 0.73892447,0.73892447 0 0 1 -0.73892,0.73892 0.73892447,0.73892447 0 0 1 -0.73892,-0.73892 0.73892447,0.73892447 0 0 1 0.73892,-0.73892 0.73892447,0.73892447 0 0 1 0.73892,0.73892 z" />
          <path
             id="path4301"
             style="fill:url(#linearGradient4387);fill-opacity:1;stroke-width:3.12965"
             d="m 116.77247,120.91458 a 0.88496521,0.88496521 0 0 1 -0.88497,0.88497 0.88496521,0.88496521 0 0 1 -0.88497,-0.88497 0.88496521,0.88496521 0 0 1 0.88497,-0.88497 0.88496521,0.88496521 0 0 1 0.88497,0.88497 z" />
          <path
             id="path4303"
             style="fill:url(#linearGradient4387);fill-opacity:1;stroke-width:6.16002"
             d="m 143.02936,60.060416 a 1.7418573,1.7418573 0 0 1 -1.74186,1.741859 1.7418573,1.7418573 0 0 1 -1.74186,-1.741859 1.7418573,1.7418573 0 0 1 1.74186,-1.741858 1.7418573,1.7418573 0 0 1 1.74186,1.741858 z" />
          <path
             id="path4305"
             style="fill:url(#linearGradient4387);fill-opacity:1;stroke-width:5.76594"
             d="m 89.736674,127.26458 a 1.6304236,1.6304236 0 0 1 -1.630424,1.63042 1.6304236,1.6304236 0 0 1 -1.630424,-1.63042 1.6304236,1.6304236 0 0 1 1.630424,-1.63042 1.6304236,1.6304236 0 0 1 1.630424,1.63042 z" />
          <path
             id="path4307"
             style="fill:url(#linearGradient4387);fill-opacity:1;stroke-width:5.86141"
             d="m 109.872,169.06875 a 1.6574205,1.6574205 0 0 1 -1.65742,1.65742 1.6574205,1.6574205 0 0 1 -1.65742,-1.65742 1.6574205,1.6574205 0 0 1 1.65742,-1.65742 1.6574205,1.6574205 0 0 1 1.65742,1.65742 z" />
          <path
             id="path4309"
             style="fill:url(#linearGradient4387);fill-opacity:1;stroke-width:4.25932"
             d="m 172.38982,134.67292 a 1.2043999,1.2043999 0 0 1 -1.2044,1.2044 1.2043999,1.2043999 0 0 1 -1.2044,-1.2044 1.2043999,1.2043999 0 0 1 1.2044,-1.2044 1.2043999,1.2043999 0 0 1 1.2044,1.2044 z" />
          <path
             id="path4311"
             style="fill:url(#linearGradient4387);fill-opacity:1;stroke-width:5.82342"
             d="m 168.0696,177.53542 a 1.6466775,1.6466775 0 0 1 -1.64668,1.64668 1.6466775,1.6466775 0 0 1 -1.64668,-1.64668 1.6466775,1.6466775 0 0 1 1.64668,-1.64668 1.6466775,1.6466775 0 0 1 1.64668,1.64668 z" />
          <path
             id="path4313"
             style="fill:url(#linearGradient4387);fill-opacity:1;stroke-width:3.02078"
             d="m 205.64078,122.57013 a 0.85417906,0.85417906 0 0 1 -0.85418,0.85418 0.85417906,0.85417906 0 0 1 -0.85418,-0.85418 0.85417906,0.85417906 0 0 1 0.85418,-0.85418 0.85417906,0.85417906 0 0 1 0.85418,0.85418 z" />
          <path
             id="path4315"
             style="fill:url(#linearGradient4387);fill-opacity:1;stroke-width:4.25932"
             d="m 193.2919,92.86875 a 1.2043999,1.2043999 0 0 1 -1.2044,1.204401 1.2043999,1.2043999 0 0 1 -1.2044,-1.204401 1.2043999,1.2043999 0 0 1 1.2044,-1.204401 1.2043999,1.2043999 0 0 1 1.2044,1.204401 z" />
          <path
             id="path4317"
             style="fill:url(#linearGradient4387);fill-opacity:1;stroke-width:2.02579"
             d="m 101.1145,72.231249 a 0.57282803,0.57282803 0 0 1 -0.57283,0.572829 0.57282803,0.57282803 0 0 1 -0.57283,-0.572829 0.57282803,0.57282803 0 0 1 0.57283,-0.572828 0.57282803,0.57282803 0 0 1 0.57283,0.572828 z" />
          <path
             id="path4319"
             style="fill:url(#linearGradient4387);fill-opacity:1;stroke-width:3.62111"
             d="m 133.58018,98.689583 a 1.0239343,1.0239343 0 0 1 -1.02393,1.023935 1.0239343,1.0239343 0 0 1 -1.02393,-1.023935 1.0239343,1.0239343 0 0 1 1.02393,-1.023934 1.0239343,1.0239343 0 0 1 1.02393,1.023934 z" />
          <path
             id="path4321"
             style="fill:url(#linearGradient4387);fill-opacity:1;stroke-width:2.56053"
             d="m 154.18237,76.464583 a 0.72403745,0.72403745 0 0 1 -0.72404,0.724038 0.72403745,0.72403745 0 0 1 -0.72404,-0.724038 0.72403745,0.72403745 0 0 1 0.72404,-0.724037 0.72403745,0.72403745 0 0 1 0.72404,0.724037 z" />
          <path
             id="path4323"
             style="opacity:1;fill:url(#linearGradient4387);fill-opacity:1;stroke-width:1.7655;filter:url(#filter7078)"
             d="m 133.76802,140.86402 c -6e-5,-4e-5 -5.80503,-7e-5 -8.70769,2.90261 -2.90268,2.90266 -2.90264,8.70764 -2.90262,8.70769 3e-5,4e-5 6e-5,-5.80571 -2.90215,-8.70805 -2.90223,-2.90232 -8.70722,-2.90229 -8.70726,-2.90225 -3e-5,2e-5 5.80495,6e-5 8.7072,-2.90221 2.90227,-2.90226 2.90224,-8.70724 2.90221,-8.7072 -2e-5,5e-5 -6e-5,5.80425 2.90266,8.70686 2.9027,2.90261 8.70768,2.90257 8.70765,2.90255 z"
             sodipodi:nodetypes="ccccccccc" />
          <path
             id="path4325"
             style="opacity:1;fill:url(#linearGradient4387);fill-opacity:1;stroke-width:0.447341;filter:url(#filter7074)"
             d="m 129.9417,77.25822 c -2e-5,-9e-6 -1.47088,-1.8e-5 -2.20635,0.735462 -0.73548,0.735474 -0.73547,2.206337 -0.73546,2.206349 0,1.2e-5 1e-5,-1.471047 -0.73535,-2.206439 -0.73536,-0.73539 -2.20623,-0.735381 -2.20624,-0.735372 -1e-5,6e-6 1.47085,1.5e-5 2.20623,-0.735359 0.73537,-0.735375 0.73536,-2.206238 0.73536,-2.206226 -10e-6,1.2e-5 -2e-5,1.470677 0.73547,2.206138 0.73549,0.735462 2.20635,0.735453 2.20634,0.735447 z"
             sodipodi:nodetypes="ccccccccc" />
          <path
             id="path4327"
             style="opacity:1;fill:url(#linearGradient4387);fill-opacity:1;stroke-width:0.518463;filter:url(#filter7070)"
             d="m 177.50523,155.0457 c -2e-5,-1e-5 -1.70473,-2e-5 -2.55714,0.8524 -0.85241,0.8524 -0.8524,2.55712 -0.85239,2.55713 1e-5,2e-5 1e-5,-1.70492 -0.85226,-2.55724 -0.85228,-0.85231 -2.557,-0.8523 -2.55701,-0.85229 -1e-5,1e-5 1.7047,2e-5 2.55699,-0.85227 0.85229,-0.85229 0.85229,-2.55701 0.85228,-2.55699 -1e-5,1e-5 -2e-5,1.7045 0.8524,2.55689 0.85243,0.85239 2.55714,0.85238 2.55713,0.85237 z"
             sodipodi:nodetypes="ccccccccc" />
          <path
             id="path4329"
             style="opacity:1;fill:url(#linearGradient4387);fill-opacity:1;stroke-width:0.884877;filter:url(#filter7066)"
             d="m 185.52975,77.291962 c -3e-5,-1.4e-5 -2.90951,-2.8e-5 -4.36434,1.454828 -1.45484,1.454813 -1.45482,4.36431 -1.4548,4.364325 2e-5,2.8e-5 2e-5,-2.909843 -1.45458,-4.364512 -1.45461,-1.454669 -4.36411,-1.454655 -4.36412,-1.454641 -2e-5,2.9e-5 2.90947,4.4e-5 4.36409,-1.454582 1.45463,-1.454627 1.45463,-4.364123 1.45461,-4.364095 -2e-5,1.5e-5 -4e-5,2.909123 1.45482,4.363922 1.45485,1.454799 4.36434,1.454784 4.36432,1.454755 z"
             sodipodi:nodetypes="ccccccccc" />
          <path
             id="path4331"
             style="opacity:1;fill:url(#linearGradient4387);fill-opacity:1;stroke-width:0.518463;filter:url(#filter7062)"
             d="m 142.84482,127.52903 c -2e-5,-1e-5 -1.70473,-2e-5 -2.55714,0.8524 -0.85241,0.8524 -0.8524,2.55712 -0.85239,2.55713 1e-5,2e-5 1e-5,-1.70492 -0.85226,-2.55724 -0.85228,-0.85231 -2.557,-0.8523 -2.55701,-0.85229 -10e-6,10e-6 1.7047,2e-5 2.55699,-0.85227 0.85229,-0.85229 0.85229,-2.55701 0.85228,-2.55699 -1e-5,1e-5 -2e-5,1.7045 0.8524,2.55689 0.85243,0.85239 2.55714,0.85238 2.55713,0.85237 z"
             sodipodi:nodetypes="ccccccccc" />
          <path
             id="path4333"
             style="opacity:1;fill:url(#linearGradient4387);fill-opacity:1;stroke-width:0.312989;filter:url(#filter7058)"
             d="m 194.38201,138.87789 c -1e-5,0 -1.02912,-1e-5 -1.54371,0.51458 -0.51458,0.51459 -0.51458,1.5437 -0.51457,1.54371 0,1e-5 0,-1.02924 -0.5145,-1.54377 -0.51451,-0.51453 -1.54362,-0.51452 -1.54363,-0.51452 -1e-5,1e-5 1.0291,1e-5 1.54362,-0.5145 0.51451,-0.51452 0.51451,-1.54363 0.51451,-1.54362 -1e-5,1e-5 -1e-5,1.02898 0.51458,1.54356 0.5146,0.51457 1.54371,0.51457 1.5437,0.51456 z"
             sodipodi:nodetypes="ccccccccc" />
          <path
             id="path4335"
             style="opacity:1;fill:url(#linearGradient4387);fill-opacity:1;stroke-width:7.41831;filter:url(#filter7050)"
             d="m 111.44812,99.546509 a 2.0976614,2.0976614 0 0 1 -2.09766,2.097661 2.0976614,2.0976614 0 0 1 -2.09766,-2.097661 2.0976614,2.0976614 0 0 1 2.09766,-2.097662 2.0976614,2.0976614 0 0 1 2.09766,2.097662 z" />
          <path
             id="path4337"
             style="opacity:1;fill:url(#linearGradient4387);fill-opacity:1;stroke-width:2.35697;filter:url(#filter7046)"
             d="m 141.6894,166.42292 a 0.66647654,0.66647654 0 0 1 -0.66648,0.66648 0.66647654,0.66647654 0 0 1 -0.66648,-0.66648 0.66647654,0.66647654 0 0 1 0.66648,-0.66648 0.66647654,0.66647654 0 0 1 0.66648,0.66648 z" />
          <path
             id="path4339"
             style="opacity:1;fill:url(#linearGradient4387);fill-opacity:1;stroke-width:2.61318;filter:url(#filter7042)"
             d="m 208.43684,101.86458 a 0.73892447,0.73892447 0 0 1 -0.73892,0.73892 0.73892447,0.73892447 0 0 1 -0.73892,-0.73892 0.73892447,0.73892447 0 0 1 0.73892,-0.73892 0.73892447,0.73892447 0 0 1 0.73892,0.73892 z" />
          <path
             id="path4341"
             style="opacity:1;fill:url(#linearGradient4387);fill-opacity:1;stroke-width:3.12965;filter:url(#filter7038)"
             d="m 116.77247,120.91458 a 0.88496521,0.88496521 0 0 1 -0.88497,0.88497 0.88496521,0.88496521 0 0 1 -0.88497,-0.88497 0.88496521,0.88496521 0 0 1 0.88497,-0.88497 0.88496521,0.88496521 0 0 1 0.88497,0.88497 z" />
          <path
             id="path4343"
             style="opacity:1;fill:url(#linearGradient4387);fill-opacity:1;stroke-width:6.16002;filter:url(#filter7034)"
             d="m 143.02936,60.060416 a 1.7418573,1.7418573 0 0 1 -1.74186,1.741859 1.7418573,1.7418573 0 0 1 -1.74186,-1.741859 1.7418573,1.7418573 0 0 1 1.74186,-1.741858 1.7418573,1.7418573 0 0 1 1.74186,1.741858 z" />
          <path
             id="path4345"
             style="opacity:1;fill:url(#linearGradient4387);fill-opacity:1;stroke-width:5.76594;filter:url(#filter7030)"
             d="m 89.736674,127.26458 a 1.6304236,1.6304236 0 0 1 -1.630424,1.63042 1.6304236,1.6304236 0 0 1 -1.630424,-1.63042 1.6304236,1.6304236 0 0 1 1.630424,-1.63042 1.6304236,1.6304236 0 0 1 1.630424,1.63042 z" />
          <path
             id="path4347"
             style="opacity:1;fill:url(#linearGradient4387);fill-opacity:1;stroke-width:5.86141;filter:url(#filter7026)"
             d="m 109.872,169.06875 a 1.6574205,1.6574205 0 0 1 -1.65742,1.65742 1.6574205,1.6574205 0 0 1 -1.65742,-1.65742 1.6574205,1.6574205 0 0 1 1.65742,-1.65742 1.6574205,1.6574205 0 0 1 1.65742,1.65742 z" />
          <path
             id="path4349"
             style="opacity:1;fill:url(#linearGradient4387);fill-opacity:1;stroke-width:4.25932;filter:url(#filter7022)"
             d="m 172.38982,134.67292 a 1.2043999,1.2043999 0 0 1 -1.2044,1.2044 1.2043999,1.2043999 0 0 1 -1.2044,-1.2044 1.2043999,1.2043999 0 0 1 1.2044,-1.2044 1.2043999,1.2043999 0 0 1 1.2044,1.2044 z" />
          <path
             id="path4351"
             style="opacity:1;fill:url(#linearGradient4387);fill-opacity:1;stroke-width:5.82342;filter:url(#filter7018)"
             d="m 168.0696,177.53542 a 1.6466775,1.6466775 0 0 1 -1.64668,1.64668 1.6466775,1.6466775 0 0 1 -1.64668,-1.64668 1.6466775,1.6466775 0 0 1 1.64668,-1.64668 1.6466775,1.6466775 0 0 1 1.64668,1.64668 z" />
          <path
             id="path4353"
             style="opacity:1;fill:url(#linearGradient4387);fill-opacity:1;stroke-width:3.02078;filter:url(#filter7014)"
             d="m 205.64078,122.57013 a 0.85417906,0.85417906 0 0 1 -0.85418,0.85418 0.85417906,0.85417906 0 0 1 -0.85418,-0.85418 0.85417906,0.85417906 0 0 1 0.85418,-0.85418 0.85417906,0.85417906 0 0 1 0.85418,0.85418 z" />
          <path
             id="path4355"
             style="opacity:1;fill:url(#linearGradient4387);fill-opacity:1;stroke-width:4.25932;filter:url(#filter7010)"
             d="m 193.2919,92.86875 a 1.2043999,1.2043999 0 0 1 -1.2044,1.204401 1.2043999,1.2043999 0 0 1 -1.2044,-1.204401 1.2043999,1.2043999 0 0 1 1.2044,-1.204401 1.2043999,1.2043999 0 0 1 1.2044,1.204401 z" />
          <path
             id="path4357"
             style="opacity:1;fill:url(#linearGradient4387);fill-opacity:1;stroke-width:2.02579;filter:url(#filter7006)"
             d="m 101.1145,72.231249 a 0.57282803,0.57282803 0 0 1 -0.57283,0.572829 0.57282803,0.57282803 0 0 1 -0.57283,-0.572829 0.57282803,0.57282803 0 0 1 0.57283,-0.572828 0.57282803,0.57282803 0 0 1 0.57283,0.572828 z" />
          <path
             id="path4359"
             style="opacity:1;fill:url(#linearGradient4387);fill-opacity:1;stroke-width:3.62111;filter:url(#filter7002)"
             d="m 133.58018,98.689583 a 1.0239343,1.0239343 0 0 1 -1.02393,1.023935 1.0239343,1.0239343 0 0 1 -1.02393,-1.023935 1.0239343,1.0239343 0 0 1 1.02393,-1.023934 1.0239343,1.0239343 0 0 1 1.02393,1.023934 z" />
          <path
             id="path4361"
             style="opacity:1;fill:url(#linearGradient4387);fill-opacity:1;stroke-width:2.56053;filter:url(#filter6998)"
             d="m 154.18237,76.464583 a 0.72403745,0.72403745 0 0 1 -0.72404,0.724038 0.72403745,0.72403745 0 0 1 -0.72404,-0.724038 0.72403745,0.72403745 0 0 1 0.72404,-0.724037 0.72403745,0.72403745 0 0 1 0.72404,0.724037 z" />
          <path
             id="path4363"
             style="opacity:1;mix-blend-mode:normal;fill:url(#linearGradient4387);fill-opacity:1;stroke-width:2.56042;filter:url(#filter2061)"
             d="m 176.8811,105.16169 c -8e-5,-3e-5 -8.41875,-8e-5 -12.62832,4.20951 -4.20962,4.2096 -4.20957,12.62828 -4.20953,12.62835 4e-5,7e-5 8e-5,-8.41973 -4.20885,-12.62885 -4.20895,-4.20909 -12.62766,-4.20904 -12.6277,-4.20901 -6e-5,5e-5 8.41862,1e-4 12.62762,-4.2089 4.20901,-4.209021 4.20897,-12.627702 4.20893,-12.627635 -4e-5,7.1e-5 -9e-5,8.417614 4.20958,12.627125 4.20965,4.20951 12.62833,4.20946 12.62827,4.20941 z"
             sodipodi:nodetypes="ccccccccc" />
        </g>
        <g
           id="g4371"
           inkscape:label="Crescent"
           style="fill:url(#linearGradient4387);fill-opacity:1">
          <path
             id="path4367"
             style="opacity:1;fill:url(#linearGradient4387);fill-opacity:1;stroke-width:7.05093;filter:url(#filter1721)"
             d="m 135.46667,46.654619 a 88.812049,88.812049 0 0 0 -88.812051,88.812051 88.812049,88.812049 0 0 0 88.812051,88.81205 88.812049,88.812049 0 0 0 88.81205,-88.81205 88.812049,88.812049 0 0 0 -0.34246,-7.71456 74.348801,74.348801 0 0 1 -74.00641,67.60025 74.348801,74.348801 0 0 1 -74.348869,-74.34887 74.348801,74.348801 0 0 1 67.598259,-74.00641 88.812049,88.812049 0 0 0 -7.71257,-0.342461 z" />
          <path
             id="path4369"
             style="fill:url(#linearGradient4387);fill-opacity:1;stroke-width:7.05093"
             d="m 135.46667,46.654619 a 88.812049,88.812049 0 0 0 -88.812051,88.812051 88.812049,88.812049 0 0 0 88.812051,88.81205 88.812049,88.812049 0 0 0 88.81205,-88.81205 88.812049,88.812049 0 0 0 -0.34246,-7.71456 74.348801,74.348801 0 0 1 -74.00641,67.60025 74.348801,74.348801 0 0 1 -74.348869,-74.34887 74.348801,74.348801 0 0 1 67.598259,-74.00641 88.812049,88.812049 0 0 0 -7.71257,-0.342461 z" />
        </g>
      </g>
      <text
         xml:space="preserve"
         style="font-style:normal;font-variant:normal;font-weight:normal;font-stretch:normal;font-size:15.875px;line-height:0;font-family:Quicksand;-inkscape-font-specification:Quicksand;letter-spacing:7.06387px;white-space:pre;inline-size:140.804;display:inline;opacity:1;fill:url(#linearGradient4387);fill-opacity:1;stroke-width:4.25932"
         x="125.2513"
         y="237.37198"
         id="text4377"
         transform="matrix(1.0788037,0,0,1.0788037,-67.840965,-6.1749819)"
         sodipodi:insensitive="true"
         inkscape:label="Text"><tspan
           x="125.2513"
           y="237.37198"
           id="tspan7733"><tspan
             style="stroke-width:4.25931"
             id="tspan7731">NOCTYRIS</tspan></tspan></text>
    </g>
  </g>
  <metadata
     id="metadata2949">
    <rdf:RDF>
      <cc:Work
         rdf:about="">
        <dc:title>Noctyris logo</dc:title>
        <dc:date>17-12-2024</dc:date>
        <dc:creator>
          <cc:Agent>
            <dc:title>Noctyris</dc:title>
          </cc:Agent>
        </dc:creator>
        <dc:publisher>
          <cc:Agent>
            <dc:title>Noctyris</dc:title>
          </cc:Agent>
        </dc:publisher>
        <dc:identifier>Noctyris</dc:identifier>
        <dc:source>Noctyris</dc:source>
        <dc:language>Frenc</dc:language>
      </cc:Work>
    </rdf:RDF>
  </metadata>
</svg>
